<svg width="50" height="37" viewBox="0 0 50 37" fill="none" xmlns="http://www.w3.org/2000/svg">
<path d="M0 24V0.399999H1.2V24H0ZM6 24V0.399999H7.2V24H6ZM9.6 24V0.399999H12V24H9.6ZM6.36 36.92C5.88 36.92 5.42667 36.7733 5 36.48C4.57333 36.2133 4.22667 35.8133 3.96 35.28C3.69333 34.72 3.56 34.0533 3.56 33.28C3.56 32.5067 3.69333 31.8533 3.96 31.32C4.25333 30.8133 4.61333 30.4267 5.04 30.16C5.46667 29.92 5.92 29.8 6.4 29.8C6.88 29.8 7.28 29.8933 7.6 30.08C7.94667 30.2933 8.21333 30.5867 8.4 30.96V26.88H9.52V26.96C9.46667 27.04 9.42667 27.1067 9.4 27.16C9.4 27.24 9.4 27.36 9.4 27.52V35.72C9.4 35.96 9.41333 36.1467 9.44 36.28C9.44 36.44 9.48 36.6 9.56 36.76H8.52C8.44 36.6 8.38667 36.44 8.36 36.28C8.36 36.1467 8.36 35.96 8.36 35.72C8.14667 36.0933 7.86667 36.3867 7.52 36.6C7.17333 36.8133 6.78667 36.92 6.36 36.92ZM6.52 35.96C7.13333 35.96 7.58667 35.72 7.88 35.24C8.17333 34.76 8.32 34.12 8.32 33.32C8.32 32.52 8.16 31.88 7.84 31.4C7.52 30.92 7.05333 30.68 6.44 30.68C5.85333 30.68 5.4 30.8933 5.08 31.32C4.76 31.7733 4.6 32.3733 4.6 33.12C4.6 34 4.76 34.6933 5.08 35.2C5.42667 35.7067 5.90667 35.96 6.52 35.96ZM13.2031 24V0.399999H14.4031V24H13.2031ZM18.0031 24V0.399999H22.8031V24H18.0031ZM24.0031 24V0.399999H25.2031V24H24.0031ZM19.8031 36.88C19.1898 36.88 18.6431 36.7333 18.1631 36.44C17.7098 36.1467 17.3498 35.7333 17.0831 35.2C16.7898 34.6667 16.6431 34.0533 16.6431 33.36C16.6431 32.6667 16.7898 32.0533 17.0831 31.52C17.3498 30.9867 17.7098 30.5733 18.1631 30.28C18.6431 29.96 19.1898 29.8 19.8031 29.8C20.4165 29.8 20.9498 29.96 21.4031 30.28C21.8831 30.5733 22.2565 30.9867 22.5231 31.52C22.7898 32.0533 22.9231 32.6667 22.9231 33.36C22.9231 34.0533 22.7898 34.6667 22.5231 35.2C22.2565 35.7333 21.8831 36.1467 21.4031 36.44C20.9498 36.7333 20.4165 36.88 19.8031 36.88ZM19.8031 36C20.1765 36 20.5231 35.88 20.8431 35.64C21.1365 35.4267 21.3765 35.12 21.5631 34.72C21.7231 34.2933 21.8031 33.8267 21.8031 33.32C21.8031 32.5467 21.6165 31.92 21.2431 31.44C20.8698 30.96 20.3898 30.72 19.8031 30.72C19.2165 30.72 18.7365 30.96 18.3631 31.44C17.9898 31.92 17.8031 32.5467 17.8031 33.32C17.8031 33.8267 17.8831 34.2933 18.0431 34.72C18.2298 35.12 18.4698 35.4267 18.7631 35.64C19.0565 35.88 19.4031 36 19.8031 36ZM26.4062 24V0.399999H30.0063V24H26.4062ZM31.2063 24V0.399999H32.4063V24H31.2063ZM33.6063 24V0.399999H36.0063V24H33.6063ZM29.6463 27.48H30.7263L33.1263 34.6L35.3663 27.48H36.4062L33.2863 36.8H32.8063L29.6463 27.48ZM39.6094 24V0.399999H40.8094V24H39.6094ZM43.2094 24V0.399999H44.4094V24H43.2094ZM45.6094 24V0.399999H48.0094V24H45.6094ZM46.1294 29.8C47.0894 29.8 47.8227 30.0533 48.3294 30.56C48.836 31.0667 49.0894 31.9333 49.0894 33.16V36.76H47.9294V35.72C47.5294 36.52 46.756 36.92 45.6094 36.92C44.8627 36.92 44.276 36.7467 43.8494 36.4C43.4227 36.0533 43.2094 35.6 43.2094 35.04C43.2094 34.56 43.3694 34.1467 43.6894 33.8C43.9827 33.4533 44.396 33.1733 44.9294 32.96C45.436 32.7733 46.0094 32.68 46.6494 32.68C47.2094 32.68 47.716 32.7067 48.1694 32.76C48.116 32.0133 47.916 31.48 47.5694 31.16C47.2227 30.84 46.716 30.68 46.0494 30.68C45.7027 30.68 45.3827 30.7467 45.0894 30.88C44.7694 31.0133 44.476 31.2 44.2094 31.44L43.6894 30.76C44.3294 30.12 45.1427 29.8 46.1294 29.8ZM45.7294 36.12C46.476 36.12 47.0627 35.8933 47.4894 35.44C47.916 35.0133 48.1427 34.4 48.1694 33.6C47.716 33.52 47.236 33.48 46.7294 33.48C45.9827 33.48 45.3827 33.6133 44.9294 33.88C44.5027 34.12 44.2894 34.4933 44.2894 35C44.2894 35.7467 44.7694 36.12 45.7294 36.12Z" fill="#01D1EA"/>
</svg>
